<svg xmlns="http://www.w3.org/2000/svg" viewBox="0 0 180 220" fill="none">
  <g stroke-linecap="round" stroke-linejoin="round">
    <path d="M88 82c-9 36-13 74-9 114" stroke="#31410f" stroke-width="6"/>
    <path d="M80 195c21-11 43-14 65-8" stroke="#b8a05a" stroke-width="5"/>
    <path d="M90 82C69 55 44 43 15 46c19 18 43 27 75 36Z" stroke="#31410f" stroke-width="5"/>
    <path d="M94 78C75 49 75 25 93 8c10 20 11 43 1 70Z" stroke="#31410f" stroke-width="5"/>
    <path d="M99 79c11-32 31-50 60-55-7 26-27 44-60 55Z" stroke="#31410f" stroke-width="5"/>
    <path d="M99 86c32-15 59-12 79 8-24 8-50 5-79-8Z" stroke="#31410f" stroke-width="5"/>
    <path d="M84 88c-36 3-61 18-77 43 31 1 56-13 77-43Z" stroke="#31410f" stroke-width="5"/>
    <path d="M91 82h.1" stroke="#b8a05a" stroke-width="9"/>
  </g>
</svg>
